<svg width="68" height="67" viewBox="0 0 68 67" fill="none" xmlns="http://www.w3.org/2000/svg">
<path d="M56.5 37.5C56.5 53.2681 46.152 65.5 34 65.5C21.848 65.5 11.5 53.2681 11.5 37.5C11.5 21.7319 21.848 9.5 34 9.5C46.152 9.5 56.5 21.7319 56.5 37.5Z" stroke="black" stroke-width="3"/>
<path d="M55 37C55 35.8954 55.8954 35 57 35H66C67.1046 35 68 35.8954 68 37V37C68 38.1046 67.1046 39 66 39H57C55.8954 39 55 38.1046 55 37V37V37Z" fill="black"/>
<path d="M54.1472 27.0948C53.5136 26.19 53.7335 24.9429 54.6383 24.3093L62.0107 19.1472C62.9155 18.5136 64.1626 18.7335 64.7961 19.6383V19.6383C65.4297 20.5431 65.2098 21.7902 64.305 22.4238L56.9326 27.586C56.0278 28.2195 54.7807 27.9996 54.1472 27.0948V27.0948V27.0948Z" fill="black"/>
<path d="M4.14715 56.0948C3.5136 55.19 3.73349 53.9429 4.6383 53.3093L12.0107 48.1472C12.9155 47.5136 14.1626 47.7335 14.7961 48.6383V48.6383C15.4297 49.5431 15.2098 50.7902 14.305 51.4238L6.93261 56.5859C6.0278 57.2195 4.78071 56.9996 4.14715 56.0948V56.0948V56.0948Z" fill="black"/>
<path d="M53.1472 48.6383C53.7807 47.7335 55.0278 47.5136 55.9326 48.1472L63.305 53.3093C64.2098 53.9429 64.4297 55.19 63.7961 56.0948V56.0948C63.1626 56.9996 61.9155 57.2195 61.0107 56.5859L53.6383 51.4238C52.7335 50.7902 52.5136 49.5431 53.1472 48.6383V48.6383V48.6383Z" fill="black"/>
<path d="M3.14716 19.6383C3.78071 18.7335 5.02781 18.5136 5.93262 19.1472L13.305 24.3093C14.2098 24.9429 14.4297 26.19 13.7961 27.0948V27.0948C13.1626 27.9996 11.9155 28.2195 11.0107 27.5859L3.63831 22.4238C2.7335 21.7902 2.5136 20.5431 3.14716 19.6383V19.6383V19.6383Z" fill="black"/>
<path d="M0 37C0 35.8954 0.895431 35 2 35H11C12.1046 35 13 35.8954 13 37V37C13 38.1046 12.1046 39 11 39H2C0.89543 39 0 38.1046 0 37V37V37Z" fill="black"/>
<rect x="12" y="29" width="44" height="4" fill="black"/>
<rect x="32" y="29" width="4" height="36" fill="black"/>
<rect x="23" y="1.03528" width="4" height="11" transform="rotate(-15 23 1.03528)" fill="black"/>
<rect x="40.847" width="4" height="11" transform="rotate(15 40.847 0)" fill="black"/>
<rect x="43" width="9" height="4" rx="2" fill="black"/>
<rect x="41" width="5" height="4" fill="black"/>
<rect x="25" y="4" width="9" height="4" rx="2" transform="rotate(-180 25 4)" fill="black"/>
<rect x="27" y="4" width="5" height="4" transform="rotate(-180 27 4)" fill="black"/>
</svg>
