<svg width="14" height="16" viewBox="0 0 14 16" fill="none" xmlns="http://www.w3.org/2000/svg">
<path d="M0.52545 15.5H0.518945C0.774257 12.1438 3.57838 9.5 7 9.5C10.4216 9.5 13.2257 12.1438 13.4811 15.5H13.4746H13.4664H13.4582H13.4499H13.4416H13.4332H13.4247H13.4162H13.4077H13.3991H13.3904H13.3816H13.3729H13.364H13.3551H13.3461H13.3371H13.328H13.3189H13.3097H13.3005H13.2912H13.2818H13.2724H13.2629H13.2534H13.2438H13.2342H13.2245H13.2148H13.205H13.1951H13.1852H13.1752H13.1652H13.1551H13.145H13.1348H13.1246H13.1143H13.1039H13.0935H13.0831H13.0726H13.062H13.0514H13.0407H13.03H13.0192H13.0084H12.9975H12.9866H12.9756H12.9646H12.9535H12.9423H12.9311H12.9199H12.9086H12.8972H12.8858H12.8743H12.8628H12.8513H12.8397H12.828H12.8163H12.8045H12.7927H12.7808H12.7689H12.7569H12.7449H12.7328H12.7207H12.7085H12.6963H12.684H12.6717H12.6593H12.6469H12.6344H12.6219H12.6093H12.5967H12.5841H12.5713H12.5586H12.5457H12.5329H12.52H12.507H12.494H12.4809H12.4678H12.4547H12.4414H12.4282H12.4149H12.4015H12.3881H12.3747H12.3612H12.3477H12.3341H12.3204H12.3068H12.293H12.2793H12.2654H12.2516H12.2376H12.2237H12.2097H12.1956H12.1815H12.1674H12.1532H12.139H12.1247H12.1103H12.096H12.0815H12.0671H12.0526H12.038H12.0234H12.0088H11.9941H11.9793H11.9646H11.9497H11.9349H11.92H11.905H11.89H11.875H11.8599H11.8448H11.8296H11.8144H11.7991H11.7838H11.7685H11.7531H11.7376H11.7222H11.7066H11.6911H11.6755H11.6598H11.6441H11.6284H11.6126H11.5968H11.581H11.5651H11.5491H11.5332H11.5171H11.5011H11.485H11.4688H11.4527H11.4364H11.4202H11.4038H11.3875H11.3711H11.3547H11.3382H11.3217H11.3052H11.2886H11.2719H11.2553H11.2386H11.2218H11.205H11.1882H11.1713H11.1544H11.1375H11.1205H11.1035H11.0864H11.0693H11.0522H11.035H11.0178H11.0006H10.9833H10.966H10.9486H10.9312H10.9138H10.8963H10.8788H10.8612H10.8436H10.826H10.8084H10.7907H10.7729H10.7552H10.7374H10.7195H10.7016H10.6837H10.6658H10.6478H10.6298H10.6117H10.5936H10.5755H10.5573H10.5391H10.5209H10.5026H10.4843H10.466H10.4476H10.4292H10.4107H10.3923H10.3737H10.3552H10.3366H10.318H10.2994H10.2807H10.262H10.2432H10.2244H10.2056H10.1868H10.1679H10.149H10.13H10.111H10.092H10.073H10.0539H10.0348H10.0156H9.99647H9.97727H9.95803H9.93876H9.91945H9.90012H9.88076H9.86136H9.84193H9.82247H9.80298H9.78346H9.76391H9.74433H9.72472H9.70507H9.6854H9.66569H9.64596H9.6262H9.6064H9.58658H9.56672H9.54684H9.52693H9.50698H9.48701H9.46701H9.44698H9.42692H9.40683H9.38672H9.36657H9.3464H9.3262H9.30596H9.28571H9.26542H9.2451H9.22476H9.20439H9.18399H9.16356H9.14311H9.12263H9.10212H9.08159H9.06102H9.04043H9.01982H8.99917H8.9785H8.95781H8.93708H8.91634H8.89556H8.87476H8.85393H8.83308H8.8122H8.79129H8.77036H8.74941H8.72843H8.70742H8.68639H8.66533H8.64425H8.62315H8.60202H8.58086H8.55968H8.53848H8.51725H8.49599H8.47472H8.45342H8.43209H8.41074H8.38937H8.36798H8.34656H8.32512H8.30365H8.28216H8.26065H8.23912H8.21756H8.19598H8.17438H8.15275H8.1311H8.10944H8.08774H8.06603H8.0443H8.02254H8.00076H7.97896H7.95714H7.93529H7.91343H7.89154H7.86964H7.84771H7.82576H7.80379H7.7818H7.75979H7.73776H7.71571H7.69364H7.67155H7.64944H7.6273H7.60515H7.58298H7.56079H7.53858H7.51635H7.49411H7.47184H7.44955H7.42725H7.40492H7.38258H7.36022H7.33784H7.31544H7.29302H7.27059H7.24814H7.22567H7.20318H7.18067H7.15815H7.13561H7.11305H7.09047H7.06788H7.04527H7.02264H7H6.97736H6.95473H6.93212H6.90953H6.88695H6.86439H6.84185H6.81933H6.79682H6.77433H6.75186H6.72941H6.70697H6.68456H6.66216H6.63978H6.61742H6.59508H6.57275H6.55045H6.52816H6.50589H6.48365H6.46142H6.43921H6.41702H6.39485H6.3727H6.35056H6.32845H6.30636H6.28429H6.26224H6.24021H6.2182H6.19621H6.17424H6.15229H6.13036H6.10846H6.08657H6.06471H6.04286H6.02104H5.99924H5.97746H5.9557H5.93397H5.91226H5.89056H5.86889H5.84725H5.82562H5.80402H5.78244H5.76088H5.73935H5.71784H5.69635H5.67488H5.65344H5.63202H5.61063H5.58926H5.56791H5.54658H5.52528H5.504H5.48275H5.46152H5.44032H5.41914H5.39798H5.37685H5.35575H5.33467H5.31361H5.29258H5.27157H5.25059H5.22963H5.2087H5.1878H5.16692H5.14607H5.12524H5.10444H5.08366H5.06291H5.04219H5.0215H5.00083H4.98018H4.95957H4.93898H4.91841H4.89788H4.87737H4.85689H4.83643H4.81601H4.79561H4.77524H4.7549H4.73458H4.71429H4.69403H4.6738H4.6536H4.63343H4.61328H4.59316H4.57308H4.55302H4.53299H4.51299H4.49301H4.47307H4.45316H4.43328H4.41342H4.3936H4.3738H4.35404H4.3343H4.3146H4.29493H4.27528H4.25567H4.23609H4.21654H4.19702H4.17753H4.15807H4.13864H4.11924H4.09988H4.08054H4.06124H4.04197H4.02273H4.00353H3.98435H3.96521H3.9461H3.92702H3.90798H3.88896H3.86998H3.85104H3.83212H3.81324H3.79439H3.77557H3.75679H3.73804H3.71933H3.70065H3.682H3.66338H3.6448H3.62626H3.60775H3.58927H3.57082H3.55242H3.53404H3.5157H3.4974H3.47913H3.46089H3.44269H3.42453H3.4064H3.3883H3.37024H3.35222H3.33424H3.31628H3.29837H3.28049H3.26265H3.24484H3.22707H3.20934H3.19164H3.17398H3.15636H3.13877H3.12122H3.10371H3.08623H3.0688H3.0514H3.03403H3.01671H2.99942H2.98217H2.96496H2.94779H2.93065H2.91356H2.8965H2.87948H2.8625H2.84556H2.82865H2.81179H2.79496H2.77818H2.76143H2.74472H2.72806H2.71143H2.69484H2.67829H2.66178H2.64531H2.62889H2.6125H2.59615H2.57984H2.56358H2.54735H2.53116H2.51502H2.49892H2.48286H2.46683H2.45086H2.43492H2.41902H2.40317H2.38735H2.37158H2.35585H2.34017H2.32452H2.30892H2.29336H2.27784H2.26237H2.24693H2.23154H2.2162H2.20089H2.18563H2.17042H2.15524H2.14011H2.12503H2.10998H2.09499H2.08003H2.06512H2.05025H2.03543H2.02065H2.00592H1.99123H1.97658H1.96198H1.94743H1.93292H1.91845H1.90403H1.88966H1.87533H1.86105H1.84681H1.83262H1.81847H1.80437H1.79032H1.77631H1.76235H1.74843H1.73457H1.72074H1.70697H1.69324H1.67956H1.66592H1.65234H1.6388H1.6253H1.61186H1.59846H1.58511H1.57181H1.55855H1.54535H1.53219H1.51908H1.50602H1.493H1.48004H1.46712H1.45425H1.44144H1.42867H1.41595H1.40327H1.39065H1.37808H1.36556H1.35308H1.34066H1.32828H1.31596H1.30369H1.29146H1.27929H1.26717H1.25509H1.24307H1.2311H1.21918H1.20731H1.19549H1.18372H1.17201H1.16034H1.14873H1.13716H1.12565H1.1142H1.10279H1.09143H1.08013H1.06888H1.05768H1.04654H1.03544H1.0244H1.01341H1.00248H0.991596H0.980766H0.96999H0.959267H0.948598H0.937982H0.92742H0.916911H0.906456H0.896055H0.885708H0.875415H0.865176H0.854992H0.844862H0.834787H0.824766H0.8148H0.804889H0.795033H0.785232H0.775486H0.765796H0.756161H0.746581H0.737057H0.727589H0.718177H0.70882H0.69952H0.690276H0.681088H0.671956H0.662881H0.653863H0.644901H0.635996H0.627148H0.618357H0.609623H0.600947H0.592327H0.583765H0.575261H0.566814H0.558426H0.550095H0.541822H0.533607H0.52545Z" stroke="black"/>
<circle cx="7" cy="4" r="3.5" stroke="black"/>
</svg>
