<svg width="17" height="18" viewBox="0 0 17 18" fill="none" xmlns="http://www.w3.org/2000/svg">
<path d="M15.7 2.25C15.7 2.30025 15.658 2.46553 15.289 2.70787C14.9403 2.93685 14.4028 3.16228 13.6937 3.35923C12.2827 3.75119 10.3048 4 8.1 4C5.89517 4 3.9173 3.75119 2.50626 3.35923C1.79722 3.16228 1.25967 2.93685 0.91101 2.70787C0.541996 2.46553 0.5 2.30025 0.5 2.25C0.5 2.19975 0.541996 2.03447 0.91101 1.79213C1.25967 1.56315 1.79722 1.33772 2.50626 1.14077C3.9173 0.748812 5.89517 0.5 8.1 0.5C10.3048 0.5 12.2827 0.748812 13.6937 1.14077C14.4028 1.33772 14.9403 1.56315 15.289 1.79213C15.658 2.03447 15.7 2.19975 15.7 2.25Z" stroke="#767676"/>
<mask id="path-2-inside-1_160_224" fill="white">
<path d="M16 15.314C16 17 12.5735 17.9105 8.1 17.9105C3.62649 17.9105 1.90735e-06 17 0 15.314C0 14.0714 9.53674e-07 16.9177 8 16.9177C16.2 16.9177 16 14.0714 16 15.314Z"/>
</mask>
<path d="M0 15.314H-1V15.314L0 15.314ZM15 15.314C15 15.3514 14.9946 15.4648 14.7586 15.6594C14.5079 15.8661 14.077 16.0895 13.4318 16.2892C12.1498 16.6862 10.286 16.9105 8.1 16.9105V18.9105C10.3875 18.9105 12.4737 18.6795 14.0233 18.1997C14.794 17.9611 15.4993 17.6408 16.0308 17.2026C16.5771 16.7523 17 16.1197 17 15.314H15ZM8.1 16.9105C5.91484 16.9105 3.9965 16.6864 2.65896 16.2864C1.98508 16.0849 1.52568 15.8581 1.25483 15.645C0.994645 15.4404 1 15.3289 1 15.314L-1 15.314C-0.999999 16.1421 -0.541332 16.7767 0.01825 17.2169C0.567167 17.6488 1.29398 17.9657 2.08592 18.2026C3.68 18.6793 5.81165 18.9105 8.1 18.9105V16.9105ZM1 15.314C1 15.2279 1.0002 15.1904 1.00111 15.1684C1.00352 15.1099 1.00767 15.2308 0.950345 15.3816C0.916449 15.4707 0.823591 15.673 0.596726 15.8288C0.341534 16.0041 0.07111 16.0175 -0.111726 15.987C-0.267519 15.961 -0.373863 15.9028 -0.404918 15.8854C-0.42683 15.8731 -0.442933 15.8627 -0.451854 15.8568C-0.461059 15.8507 -0.466813 15.8464 -0.46815 15.8455C-0.469653 15.8443 -0.465031 15.8477 -0.448627 15.8609C-0.431872 15.8744 -0.41484 15.8884 -0.386995 15.911C-0.335046 15.9533 -0.265351 16.0096 -0.180413 16.0736C-0.00845166 16.2034 0.217771 16.3591 0.513898 16.5238C1.70426 17.1859 3.88498 17.9177 8 17.9177V15.9177C4.11502 15.9177 2.29574 15.2263 1.4861 14.776C1.0592 14.5385 0.93715 14.3966 0.718151 14.2353C0.68777 14.2129 0.636308 14.1763 0.572398 14.1405C0.517418 14.1097 0.390566 14.0431 0.217195 14.0142C0.0167808 13.9808 -0.268292 13.9966 -0.535691 14.1803C-0.774763 14.3445 -0.877386 14.5611 -0.919095 14.6708C-0.992042 14.8626 -0.995706 15.0498 -0.997199 15.0861C-1.0002 15.1589 -1 15.2449 -1 15.314H1ZM8 17.9177C12.2073 17.9177 14.3958 17.1887 15.5705 16.5185C15.8639 16.3511 16.0867 16.1915 16.2561 16.0558C16.37 15.9645 16.5906 15.7688 16.5472 15.8053C16.5469 15.8056 16.5422 15.8095 16.5343 15.8156C16.5268 15.8215 16.5116 15.8329 16.4905 15.8469C16.4678 15.8619 16.3483 15.9425 16.1664 15.98C15.9288 16.029 15.5882 15.9984 15.3089 15.7442C15.0964 15.5509 15.0376 15.328 15.024 15.2748C14.9942 15.1589 14.9995 15.0697 15.0003 15.1386C15.0008 15.1805 15 15.2158 15 15.314H17C17 15.2569 17.0008 15.1689 17.0002 15.1159C16.9999 15.09 17.0015 14.9346 16.9612 14.7776C16.9423 14.7038 16.8765 14.4666 16.6548 14.2649C16.3663 14.0024 16.0142 13.9693 15.7624 14.0212C15.5663 14.0616 15.4298 14.1505 15.3869 14.179C15.3289 14.2173 15.2829 14.2554 15.259 14.2754C15.1033 14.4066 14.9655 14.5611 14.5795 14.7813C13.8042 15.2236 11.9927 15.9177 8 15.9177V17.9177Z" fill="#767676" mask="url(#path-2-inside-1_160_224)"/>
<mask id="path-4-inside-2_160_224" fill="white">
<path d="M16 6.31403C16 8 12.5735 8.91046 8.1 8.91046C3.62649 8.91046 1.90735e-06 8 0 6.31403C0 5.07139 9.53674e-07 7.91769 8 7.91769C16.2 7.91769 16 5.07139 16 6.31403Z"/>
</mask>
<path d="M0 6.31403H-1V6.31403L0 6.31403ZM15 6.31403C15 6.35138 14.9946 6.46484 14.7586 6.65939C14.5079 6.86607 14.077 7.08946 13.4318 7.28923C12.1498 7.68617 10.286 7.91046 8.1 7.91046V9.91046C10.3875 9.91046 12.4737 9.67953 14.0233 9.19975C14.794 8.96115 15.4993 8.6408 16.0308 8.2026C16.5771 7.75226 17 7.11967 17 6.31403H15ZM8.1 7.91046C5.91484 7.91046 3.9965 7.68641 2.65896 7.28641C1.98508 7.08488 1.52568 6.85811 1.25483 6.64504C0.994645 6.44036 1 6.32893 1 6.31403L-1 6.31403C-0.999999 7.14212 -0.541332 7.77673 0.01825 8.21694C0.567167 8.64876 1.29398 8.96573 2.08592 9.20256C3.68 9.67928 5.81165 9.91046 8.1 9.91046V7.91046ZM1 6.31403C1 6.22788 1.0002 6.19041 1.00111 6.16842C1.00352 6.10986 1.00767 6.23079 0.950345 6.38155C0.916449 6.4707 0.823591 6.67299 0.596726 6.82883C0.341534 7.00413 0.07111 7.01746 -0.111726 6.98697C-0.267519 6.961 -0.373863 6.90281 -0.404918 6.88542C-0.42683 6.87314 -0.442933 6.86275 -0.451854 6.8568C-0.461059 6.85066 -0.466813 6.84644 -0.46815 6.84546C-0.469653 6.84435 -0.465031 6.84774 -0.448627 6.86092C-0.431872 6.8744 -0.41484 6.88836 -0.386995 6.91101C-0.335046 6.95328 -0.265351 7.00955 -0.180413 7.07364C-0.00845166 7.20338 0.217771 7.35905 0.513898 7.52377C1.70426 8.1859 3.88498 8.91769 8 8.91769V6.91769C4.11502 6.91769 2.29574 6.22633 1.4861 5.77597C1.0592 5.53851 0.93715 5.39662 0.718151 5.23527C0.68777 5.21289 0.636308 5.17626 0.572398 5.14047C0.517418 5.10967 0.390566 5.04311 0.217195 5.0142C0.0167808 4.98079 -0.268292 4.99663 -0.535691 5.18031C-0.774763 5.34454 -0.877386 5.56108 -0.919095 5.67078C-0.992042 5.86264 -0.995706 6.04984 -0.997199 6.0861C-1.0002 6.15894 -1 6.24486 -1 6.31403H1ZM8 8.91769C12.2073 8.91769 14.3958 8.18866 15.5705 7.51846C15.8639 7.35109 16.0867 7.1915 16.2561 7.05576C16.37 6.9645 16.5906 6.76878 16.5472 6.80532C16.5469 6.80555 16.5422 6.80951 16.5343 6.81565C16.5268 6.8215 16.5116 6.83295 16.4905 6.8469C16.4678 6.86194 16.3483 6.94246 16.1664 6.97997C15.9288 7.02898 15.5882 6.99838 15.3089 6.74424C15.0964 6.55091 15.0376 6.328 15.024 6.27475C14.9942 6.15888 14.9995 6.06974 15.0003 6.13859C15.0008 6.18046 15 6.21581 15 6.31403H17C17 6.25693 17.0008 6.1689 17.0002 6.11593C16.9999 6.08996 17.0015 5.93455 16.9612 5.77758C16.9423 5.70379 16.8765 5.46662 16.6548 5.26491C16.3663 5.00238 16.0142 4.96927 15.7624 5.0212C15.5663 5.06165 15.4298 5.15054 15.3869 5.17898C15.3289 5.21731 15.2829 5.25536 15.259 5.27541C15.1033 5.40657 14.9655 5.56107 14.5795 5.78128C13.8042 6.22356 11.9927 6.91769 8 6.91769V8.91769Z" fill="#767676" mask="url(#path-4-inside-2_160_224)"/>
<mask id="path-6-inside-3_160_224" fill="white">
<path d="M16 10.314C16 12 12.5735 12.9105 8.1 12.9105C3.62649 12.9105 1.90735e-06 12 0 10.314C0 9.07139 9.53674e-07 11.9177 8 11.9177C16.2 11.9177 16 9.07139 16 10.314Z"/>
</mask>
<path d="M0 10.314H-1V10.314L0 10.314ZM15 10.314C15 10.3514 14.9946 10.4648 14.7586 10.6594C14.5079 10.8661 14.077 11.0895 13.4318 11.2892C12.1498 11.6862 10.286 11.9105 8.1 11.9105V13.9105C10.3875 13.9105 12.4737 13.6795 14.0233 13.1997C14.794 12.9611 15.4993 12.6408 16.0308 12.2026C16.5771 11.7523 17 11.1197 17 10.314H15ZM8.1 11.9105C5.91484 11.9105 3.9965 11.6864 2.65896 11.2864C1.98508 11.0849 1.52568 10.8581 1.25483 10.645C0.994645 10.4404 1 10.3289 1 10.314L-1 10.314C-0.999999 11.1421 -0.541332 11.7767 0.01825 12.2169C0.567167 12.6488 1.29398 12.9657 2.08592 13.2026C3.68 13.6793 5.81165 13.9105 8.1 13.9105V11.9105ZM1 10.314C1 10.2279 1.0002 10.1904 1.00111 10.1684C1.00352 10.1099 1.00767 10.2308 0.950345 10.3816C0.916449 10.4707 0.823591 10.673 0.596726 10.8288C0.341534 11.0041 0.07111 11.0175 -0.111726 10.987C-0.267519 10.961 -0.373863 10.9028 -0.404918 10.8854C-0.42683 10.8731 -0.442933 10.8627 -0.451854 10.8568C-0.461059 10.8507 -0.466813 10.8464 -0.46815 10.8455C-0.469653 10.8443 -0.465031 10.8477 -0.448627 10.8609C-0.431872 10.8744 -0.41484 10.8884 -0.386995 10.911C-0.335046 10.9533 -0.265351 11.0096 -0.180413 11.0736C-0.00845166 11.2034 0.217771 11.3591 0.513898 11.5238C1.70426 12.1859 3.88498 12.9177 8 12.9177V10.9177C4.11502 10.9177 2.29574 10.2263 1.4861 9.77597C1.0592 9.53851 0.93715 9.39662 0.718151 9.23527C0.68777 9.21289 0.636308 9.17626 0.572398 9.14047C0.517418 9.10967 0.390566 9.04311 0.217195 9.0142C0.0167808 8.98079 -0.268292 8.99663 -0.535691 9.18031C-0.774763 9.34454 -0.877386 9.56108 -0.919095 9.67078C-0.992042 9.86264 -0.995706 10.0498 -0.997199 10.0861C-1.0002 10.1589 -1 10.2449 -1 10.314H1ZM8 12.9177C12.2073 12.9177 14.3958 12.1887 15.5705 11.5185C15.8639 11.3511 16.0867 11.1915 16.2561 11.0558C16.37 10.9645 16.5906 10.7688 16.5472 10.8053C16.5469 10.8056 16.5422 10.8095 16.5343 10.8156C16.5268 10.8215 16.5116 10.8329 16.4905 10.8469C16.4678 10.8619 16.3483 10.9425 16.1664 10.98C15.9288 11.029 15.5882 10.9984 15.3089 10.7442C15.0964 10.5509 15.0376 10.328 15.024 10.2748C14.9942 10.1589 14.9995 10.0697 15.0003 10.1386C15.0008 10.1805 15 10.2158 15 10.314H17C17 10.2569 17.0008 10.1689 17.0002 10.1159C16.9999 10.09 17.0015 9.93455 16.9612 9.77758C16.9423 9.70379 16.8765 9.46662 16.6548 9.26491C16.3663 9.00238 16.0142 8.96927 15.7624 9.0212C15.5663 9.06165 15.4298 9.15054 15.3869 9.17898C15.3289 9.21731 15.2829 9.25536 15.259 9.27541C15.1033 9.40657 14.9655 9.56107 14.5795 9.78128C13.8042 10.2236 11.9927 10.9177 8 10.9177V12.9177Z" fill="#767676" mask="url(#path-6-inside-3_160_224)"/>
<path d="M0 2H1V16L0 15V2Z" fill="#767676"/>
<path d="M15 2H16V15L15 16V2Z" fill="#767676"/>
</svg>
