<svg width="21" height="19" viewBox="0 0 21 19" fill="none" xmlns="http://www.w3.org/2000/svg">
<path d="M10.3314 1.1695C10.4269 1.08233 10.5731 1.08233 10.6686 1.1695L19.5902 9.31538C19.7588 9.46928 19.6499 9.75 19.4217 9.75H18C17.0335 9.75 16.25 10.5335 16.25 11.5V18C16.25 18.1381 16.1381 18.25 16 18.25H13C12.8619 18.25 12.75 18.1381 12.75 18V15C12.75 14.0335 11.9665 13.25 11 13.25H10C9.0335 13.25 8.25 14.0335 8.25 15V18C8.25 18.1381 8.13807 18.25 8 18.25H5C4.86193 18.25 4.75 18.1381 4.75 18V11.5C4.75 10.5335 3.9665 9.75 3 9.75H1.57832C1.35008 9.75 1.2412 9.46928 1.40976 9.31538L10.3314 1.1695Z" stroke="#767676" stroke-width="1.5"/>
</svg>
