<svg width="18" height="24" viewBox="0 0 18 24" fill="none" xmlns="http://www.w3.org/2000/svg">
<circle cx="9" cy="12" r="9" fill="#767676"/>
<path d="M7.29297 10.2695L10.8867 10.3086C10.6784 11.1029 10.5221 11.7799 10.418 12.3398C10.3268 12.8997 10.2682 13.3685 10.2422 13.7461C10.1901 14.1758 10.1771 14.5404 10.2031 14.8398C10.2422 15.1133 10.3073 15.4062 10.3984 15.7188C10.4766 15.9792 10.5938 16.2786 10.75 16.6172C10.9062 16.9557 11.1146 17.2943 11.375 17.6328C11.2188 17.5807 11.0495 17.5417 10.8672 17.5156C10.6849 17.4896 10.5156 17.4701 10.3594 17.457C10.1771 17.444 9.99479 17.444 9.8125 17.457C9.63021 17.4701 9.42839 17.4896 9.20703 17.5156C9.02474 17.5417 8.80339 17.5742 8.54297 17.6133C8.28255 17.6523 8.00911 17.7044 7.72266 17.7695C7.91797 17.1836 8.06771 16.6758 8.17188 16.2461C8.28906 15.8164 8.3737 15.4583 8.42578 15.1719C8.47786 14.8333 8.51042 14.5599 8.52344 14.3516C8.52344 14.0911 8.52344 13.7982 8.52344 13.4727C8.52344 13.1341 8.52344 12.8086 8.52344 12.4961C8.52344 12.1836 8.51693 11.9102 8.50391 11.6758C8.49089 11.4284 8.46484 11.2721 8.42578 11.207L8.23047 11.0117C8.15234 10.9466 8.03516 10.8555 7.87891 10.7383C7.73568 10.6081 7.54036 10.4518 7.29297 10.2695ZM8.67969 7.26172C8.95312 7.11849 9.22656 7.07943 9.5 7.14453C9.78646 7.20964 10.0078 7.33333 10.1641 7.51562C10.3203 7.69792 10.3724 7.91276 10.3203 8.16016C10.2812 8.40755 10.0729 8.64844 9.69531 8.88281C9.31771 9.10417 8.98568 9.18229 8.69922 9.11719C8.41276 9.05208 8.21094 8.91536 8.09375 8.70703C7.97656 8.4987 7.95703 8.25781 8.03516 7.98438C8.11328 7.69792 8.32812 7.45703 8.67969 7.26172Z" fill="white"/>
</svg>
