<svg width="102" height="67" viewBox="0 0 102 67" fill="none" xmlns="http://www.w3.org/2000/svg">
<path d="M19.8293 39V30.03H16.1993V28.425H25.3793V30.03H21.7493V39H19.8293ZM25.2439 39V31.665H27.0739V32.955C27.4339 32.085 28.2039 31.605 29.3839 31.515L29.9539 31.47L30.0739 33.06L28.9939 33.165C27.7639 33.285 27.1489 33.915 27.1489 35.055V39H25.2439ZM34.6157 39.15C33.7857 39.15 33.0707 38.995 32.4707 38.685C31.8707 38.375 31.4057 37.935 31.0757 37.365C30.7557 36.795 30.5957 36.12 30.5957 35.34C30.5957 34.58 30.7507 33.915 31.0607 33.345C31.3807 32.775 31.8157 32.33 32.3657 32.01C32.9257 31.68 33.5607 31.515 34.2707 31.515C35.3107 31.515 36.1307 31.845 36.7307 32.505C37.3407 33.165 37.6457 34.065 37.6457 35.205V35.76H32.3957C32.5357 37.07 33.2857 37.725 34.6457 37.725C35.0557 37.725 35.4657 37.665 35.8757 37.545C36.2857 37.415 36.6607 37.215 37.0007 36.945L37.5257 38.205C37.1757 38.495 36.7357 38.725 36.2057 38.895C35.6757 39.065 35.1457 39.15 34.6157 39.15ZM34.3457 32.79C33.7957 32.79 33.3507 32.96 33.0107 33.3C32.6707 33.64 32.4657 34.1 32.3957 34.68H36.0857C36.0457 34.07 35.8757 33.605 35.5757 33.285C35.2857 32.955 34.8757 32.79 34.3457 32.79ZM42.7456 39.15C41.9156 39.15 41.2006 38.995 40.6006 38.685C40.0006 38.375 39.5356 37.935 39.2056 37.365C38.8856 36.795 38.7256 36.12 38.7256 35.34C38.7256 34.58 38.8806 33.915 39.1906 33.345C39.5106 32.775 39.9456 32.33 40.4956 32.01C41.0556 31.68 41.6906 31.515 42.4006 31.515C43.4406 31.515 44.2606 31.845 44.8606 32.505C45.4706 33.165 45.7756 34.065 45.7756 35.205V35.76H40.5256C40.6656 37.07 41.4156 37.725 42.7756 37.725C43.1856 37.725 43.5956 37.665 44.0056 37.545C44.4156 37.415 44.7906 37.215 45.1306 36.945L45.6556 38.205C45.3056 38.495 44.8656 38.725 44.3356 38.895C43.8056 39.065 43.2756 39.15 42.7456 39.15ZM42.4756 32.79C41.9256 32.79 41.4806 32.96 41.1406 33.3C40.8006 33.64 40.5956 34.1 40.5256 34.68H44.2156C44.1756 34.07 44.0056 33.605 43.7056 33.285C43.4156 32.955 43.0056 32.79 42.4756 32.79ZM47.4405 39V28.425H52.0605C53.1705 28.425 54.0305 28.67 54.6405 29.16C55.2505 29.64 55.5555 30.31 55.5555 31.17C55.5555 31.74 55.4105 32.23 55.1205 32.64C54.8305 33.05 54.4305 33.35 53.9205 33.54C54.5205 33.71 54.9855 34.01 55.3155 34.44C55.6555 34.86 55.8255 35.395 55.8255 36.045C55.8255 36.985 55.5055 37.715 54.8655 38.235C54.2355 38.745 53.3555 39 52.2255 39H47.4405ZM49.2855 32.91H51.7305C53.0405 32.91 53.6955 32.405 53.6955 31.395C53.6955 30.385 53.0405 29.88 51.7305 29.88H49.2855V32.91ZM49.2855 37.545H51.9855C53.3055 37.545 53.9655 37.015 53.9655 35.955C53.9655 34.895 53.3055 34.365 51.9855 34.365H49.2855V37.545ZM56.5544 39L61.3394 28.425H62.9144L67.6994 39H65.7494L64.6994 36.555H59.5394L58.5044 39H56.5544ZM62.1044 30.51L60.1994 35.025H64.0394L62.1344 30.51H62.1044ZM72.3843 39.15C71.5543 39.15 70.7843 39.045 70.0743 38.835C69.3643 38.615 68.7643 38.32 68.2743 37.95L68.8593 36.435C69.3493 36.785 69.8843 37.055 70.4643 37.245C71.0543 37.435 71.6943 37.53 72.3843 37.53C73.1743 37.53 73.7493 37.4 74.1093 37.14C74.4693 36.87 74.6493 36.525 74.6493 36.105C74.6493 35.755 74.5193 35.48 74.2593 35.28C74.0093 35.08 73.5743 34.915 72.9543 34.785L71.3043 34.44C69.4243 34.04 68.4843 33.075 68.4843 31.545C68.4843 30.885 68.6593 30.31 69.0093 29.82C69.3593 29.33 69.8443 28.95 70.4643 28.68C71.0843 28.41 71.7993 28.275 72.6093 28.275C73.3293 28.275 74.0043 28.385 74.6343 28.605C75.2643 28.815 75.7893 29.115 76.2093 29.505L75.6243 30.945C74.7943 30.245 73.7843 29.895 72.5943 29.895C71.9043 29.895 71.3643 30.04 70.9743 30.33C70.5843 30.62 70.3893 31 70.3893 31.47C70.3893 31.83 70.5093 32.12 70.7493 32.34C70.9893 32.55 71.3993 32.715 71.9793 32.835L73.6143 33.18C74.6043 33.39 75.3393 33.72 75.8193 34.17C76.3093 34.62 76.5543 35.22 76.5543 35.97C76.5543 36.6 76.3843 37.155 76.0443 37.635C75.7043 38.115 75.2193 38.49 74.5893 38.76C73.9693 39.02 73.2343 39.15 72.3843 39.15ZM78.2022 39V28.425H85.2372V29.955H80.0472V32.865H84.9072V34.395H80.0472V37.47H85.2372V39H78.2022Z" fill="black"/>
<path d="M50.9853 0L53.8137 2.82843L39.6642 17.0091L34.0147 17L50.9853 0Z" fill="black"/>
<path d="M62.5074 17.0386L67.9485 17.0091L50.9779 0.038573L48.1495 2.867L62.5074 17.0386Z" fill="black"/>
<path d="M57.3419 6.40253L60.1703 9.23096L52.5074 17.0386L46.8197 17.0936L57.3419 6.40253Z" fill="black"/>
<path d="M50.9862 66.9714L48.1577 64.143L62.3072 49.9623L67.9567 49.9714L50.9862 66.9714Z" fill="black"/>
<path d="M39.4641 49.9329L34.023 49.9623L50.9935 66.9329L53.822 64.1044L39.4641 49.9329Z" fill="black"/>
<path d="M44.6296 60.5689L41.8011 57.7405L49.4641 49.9329L55.1517 49.8779L44.6296 60.5689Z" fill="black"/>
<path d="M70 10.91C86.5685 10.91 100 20.9836 100 33.41C100 45.8364 87.1568 55.91 70.5882 55.91" stroke="black" stroke-width="3"/>
<path d="M32 55.91C15.4315 55.91 2 45.8364 2 33.41C2 20.9836 14.8432 10.91 31.4118 10.91" stroke="black" stroke-width="3"/>
<rect x="68" y="56.0711" width="3" height="10" transform="rotate(-45 68 56.0711)" fill="black"/>
<rect x="70.1213" y="58.1924" width="3" height="10" transform="rotate(-135 70.1213 58.1924)" fill="black"/>
<rect x="34.1421" y="11.0711" width="3" height="10" transform="rotate(135 34.1421 11.0711)" fill="black"/>
<rect x="32.0208" y="8.94976" width="3" height="10" transform="rotate(45 32.0208 8.94976)" fill="black"/>
</svg>
