<svg width="184" height="50" viewBox="0 0 184 50" fill="none" xmlns="http://www.w3.org/2000/svg">
<path d="M41.904 33V13.864H34.16V10.44H53.744V13.864H46V33H41.904ZM53.455 33V17.352H57.359V21.128H57.039C57.3377 19.848 57.9243 18.8773 58.799 18.216C59.6737 17.5333 60.8363 17.1387 62.287 17.032L63.503 16.936L63.759 20.328L61.455 20.552C60.1537 20.68 59.1723 21.0853 58.511 21.768C57.8497 22.4293 57.519 23.368 57.519 24.584V33H53.455ZM73.4483 33.32C71.6776 33.32 70.1523 32.9893 68.8723 32.328C67.5923 31.6667 66.6003 30.728 65.8963 29.512C65.2136 28.296 64.8723 26.856 64.8723 25.192C64.8723 23.5707 65.2029 22.152 65.8643 20.936C66.5469 19.72 67.4749 18.7707 68.6483 18.088C69.8429 17.384 71.1976 17.032 72.7123 17.032C74.2056 17.032 75.4856 17.352 76.5523 17.992C77.6189 18.632 78.4403 19.5387 79.0163 20.712C79.6136 21.8853 79.9123 23.2827 79.9123 24.904V26.088H68.1043V23.784H77.0963L76.5843 24.264C76.5843 22.8133 76.2643 21.704 75.6243 20.936C74.9843 20.1467 74.0669 19.752 72.8723 19.752C71.9763 19.752 71.2083 19.9653 70.5683 20.392C69.9496 20.7973 69.4696 21.384 69.1283 22.152C68.8083 22.8987 68.6483 23.7947 68.6483 24.84V25.064C68.6483 26.2373 68.8296 27.208 69.1923 27.976C69.5549 28.744 70.0989 29.32 70.8243 29.704C71.5496 30.088 72.4456 30.28 73.5123 30.28C74.3869 30.28 75.2616 30.152 76.1363 29.896C77.0109 29.6187 77.8109 29.192 78.5363 28.616L79.6562 31.304C78.9096 31.9227 77.9709 32.4133 76.8403 32.776C75.7096 33.1387 74.5789 33.32 73.4483 33.32ZM90.792 33.32C89.0213 33.32 87.496 32.9893 86.216 32.328C84.936 31.6667 83.944 30.728 83.24 29.512C82.5573 28.296 82.216 26.856 82.216 25.192C82.216 23.5707 82.5467 22.152 83.208 20.936C83.8907 19.72 84.8187 18.7707 85.992 18.088C87.1867 17.384 88.5413 17.032 90.056 17.032C91.5493 17.032 92.8293 17.352 93.896 17.992C94.9627 18.632 95.784 19.5387 96.36 20.712C96.9573 21.8853 97.256 23.2827 97.256 24.904V26.088H85.448V23.784H94.44L93.928 24.264C93.928 22.8133 93.608 21.704 92.968 20.936C92.328 20.1467 91.4107 19.752 90.216 19.752C89.32 19.752 88.552 19.9653 87.912 20.392C87.2933 20.7973 86.8133 21.384 86.472 22.152C86.152 22.8987 85.992 23.7947 85.992 24.84V25.064C85.992 26.2373 86.1733 27.208 86.536 27.976C86.8987 28.744 87.4427 29.32 88.168 29.704C88.8933 30.088 89.7893 30.28 90.856 30.28C91.7307 30.28 92.6053 30.152 93.48 29.896C94.3547 29.6187 95.1547 29.192 95.88 28.616L97 31.304C96.2533 31.9227 95.3147 32.4133 94.184 32.776C93.0533 33.1387 91.9227 33.32 90.792 33.32ZM100.808 33V10.44H110.664C113.032 10.44 114.866 10.9627 116.168 12.008C117.469 13.032 118.12 14.4613 118.12 16.296C118.12 17.6613 117.725 18.8133 116.936 19.752C116.146 20.6907 115.069 21.32 113.704 21.64V21.16C114.749 21.3093 115.645 21.6293 116.392 22.12C117.138 22.6107 117.704 23.24 118.088 24.008C118.493 24.776 118.696 25.672 118.696 26.696C118.696 28.0187 118.386 29.16 117.768 30.12C117.17 31.0587 116.296 31.7733 115.144 32.264C113.992 32.7547 112.616 33 111.016 33H100.808ZM104.744 29.896H110.504C111.08 29.896 111.592 29.8533 112.04 29.768C112.509 29.6827 112.904 29.5547 113.224 29.384C113.565 29.192 113.842 28.9573 114.056 28.68C114.29 28.4027 114.461 28.0827 114.568 27.72C114.674 27.3573 114.728 26.952 114.728 26.504C114.728 26.0347 114.674 25.6187 114.568 25.256C114.461 24.8933 114.29 24.584 114.056 24.328C113.842 24.0507 113.565 23.8267 113.224 23.656C112.904 23.464 112.509 23.3253 112.04 23.24C111.592 23.1547 111.08 23.112 110.504 23.112H104.744V29.896ZM104.744 20.008H109.96C111.368 20.008 112.413 19.7413 113.096 19.208C113.8 18.6533 114.152 17.8427 114.152 16.776C114.152 15.7093 113.8 14.9093 113.096 14.376C112.413 13.8213 111.368 13.544 109.96 13.544H104.744V20.008ZM120.251 33L130.459 10.44H133.819L144.027 33H139.867L137.147 26.664L138.875 27.784H125.371L127.099 26.664L124.411 33H120.251ZM132.091 14.888L127.611 25.544L126.779 24.52H137.467L136.667 25.544L132.155 14.888H132.091ZM154.021 33.32C152.848 33.32 151.717 33.2133 150.629 33C149.563 32.808 148.571 32.52 147.653 32.136C146.757 31.752 145.957 31.2933 145.253 30.76L146.501 27.528C147.205 28.0187 147.941 28.4453 148.709 28.808C149.499 29.1493 150.331 29.416 151.205 29.608C152.101 29.7787 153.04 29.864 154.021 29.864C155.707 29.864 156.933 29.5867 157.701 29.032C158.469 28.456 158.853 27.72 158.853 26.824C158.853 26.3333 158.736 25.9173 158.501 25.576C158.267 25.2133 157.883 24.904 157.349 24.648C156.816 24.392 156.112 24.1787 155.237 24.008L151.717 23.272C149.691 22.8453 148.176 22.1307 147.173 21.128C146.192 20.104 145.701 18.76 145.701 17.096C145.701 15.688 146.075 14.4613 146.821 13.416C147.568 12.3707 148.603 11.56 149.925 10.984C151.248 10.408 152.773 10.12 154.501 10.12C155.525 10.12 156.507 10.2267 157.445 10.44C158.405 10.632 159.28 10.9307 160.069 11.336C160.88 11.72 161.584 12.1893 162.181 12.744L160.933 15.816C160.037 15.0693 159.056 14.5147 157.989 14.152C156.923 13.768 155.749 13.576 154.469 13.576C153.488 13.576 152.645 13.7147 151.941 13.992C151.237 14.2693 150.693 14.664 150.309 15.176C149.947 15.6667 149.765 16.2533 149.765 16.936C149.765 17.704 150.021 18.3227 150.533 18.792C151.045 19.24 151.92 19.592 153.157 19.848L156.645 20.584C158.757 21.032 160.325 21.736 161.349 22.696C162.395 23.656 162.917 24.936 162.917 26.536C162.917 27.88 162.555 29.064 161.829 30.088C161.104 31.112 160.069 31.912 158.725 32.488C157.403 33.0427 155.835 33.32 154.021 33.32ZM166.433 33V10.44H181.441V13.704H170.369V19.912H180.737V23.176H170.369V29.736H181.441V33H166.433Z" fill="white"/>
<path d="M16.9852 16L19.8137 18.8284L5.66415 33.0091L0.0146631 33L16.9852 16Z" fill="white"/>
<path d="M28.5073 33.0387L33.9484 33.0092L16.9779 16.0387L14.1494 18.8671L28.5073 33.0387Z" fill="white"/>
<path d="M23.3418 22.4026L26.1702 25.231L18.5073 33.0386L12.8196 33.0936L23.3418 22.4026Z" fill="white"/>
</svg>
