<svg width="102" height="67" viewBox="0 0 102 67" fill="none" xmlns="http://www.w3.org/2000/svg">
<path d="M19.8293 39V30.03H16.1993V28.425H25.3793V30.03H21.7493V39H19.8293ZM25.2439 39V31.665H27.0739V33.435H26.9239C27.0639 32.835 27.3389 32.38 27.7489 32.07C28.1589 31.75 28.7039 31.565 29.3839 31.515L29.9539 31.47L30.0739 33.06L28.9939 33.165C28.3839 33.225 27.9239 33.415 27.6139 33.735C27.3039 34.045 27.1489 34.485 27.1489 35.055V39H25.2439ZM34.6157 39.15C33.7857 39.15 33.0707 38.995 32.4707 38.685C31.8707 38.375 31.4057 37.935 31.0757 37.365C30.7557 36.795 30.5957 36.12 30.5957 35.34C30.5957 34.58 30.7507 33.915 31.0607 33.345C31.3807 32.775 31.8157 32.33 32.3657 32.01C32.9257 31.68 33.5607 31.515 34.2707 31.515C34.9707 31.515 35.5707 31.665 36.0707 31.965C36.5707 32.265 36.9557 32.69 37.2257 33.24C37.5057 33.79 37.6457 34.445 37.6457 35.205V35.76H32.1107V34.68H36.3257L36.0857 34.905C36.0857 34.225 35.9357 33.705 35.6357 33.345C35.3357 32.975 34.9057 32.79 34.3457 32.79C33.9257 32.79 33.5657 32.89 33.2657 33.09C32.9757 33.28 32.7507 33.555 32.5907 33.915C32.4407 34.265 32.3657 34.685 32.3657 35.175V35.28C32.3657 35.83 32.4507 36.285 32.6207 36.645C32.7907 37.005 33.0457 37.275 33.3857 37.455C33.7257 37.635 34.1457 37.725 34.6457 37.725C35.0557 37.725 35.4657 37.665 35.8757 37.545C36.2857 37.415 36.6607 37.215 37.0007 36.945L37.5257 38.205C37.1757 38.495 36.7357 38.725 36.2057 38.895C35.6757 39.065 35.1457 39.15 34.6157 39.15ZM42.7456 39.15C41.9156 39.15 41.2006 38.995 40.6006 38.685C40.0006 38.375 39.5356 37.935 39.2056 37.365C38.8856 36.795 38.7256 36.12 38.7256 35.34C38.7256 34.58 38.8806 33.915 39.1906 33.345C39.5106 32.775 39.9456 32.33 40.4956 32.01C41.0556 31.68 41.6906 31.515 42.4006 31.515C43.1006 31.515 43.7006 31.665 44.2006 31.965C44.7006 32.265 45.0856 32.69 45.3556 33.24C45.6356 33.79 45.7756 34.445 45.7756 35.205V35.76H40.2406V34.68H44.4556L44.2156 34.905C44.2156 34.225 44.0656 33.705 43.7656 33.345C43.4656 32.975 43.0356 32.79 42.4756 32.79C42.0556 32.79 41.6956 32.89 41.3956 33.09C41.1056 33.28 40.8806 33.555 40.7206 33.915C40.5706 34.265 40.4956 34.685 40.4956 35.175V35.28C40.4956 35.83 40.5806 36.285 40.7506 36.645C40.9206 37.005 41.1756 37.275 41.5156 37.455C41.8556 37.635 42.2756 37.725 42.7756 37.725C43.1856 37.725 43.5956 37.665 44.0056 37.545C44.4156 37.415 44.7906 37.215 45.1306 36.945L45.6556 38.205C45.3056 38.495 44.8656 38.725 44.3356 38.895C43.8056 39.065 43.2756 39.15 42.7456 39.15ZM47.4405 39V28.425H52.0605C53.1705 28.425 54.0305 28.67 54.6405 29.16C55.2505 29.64 55.5555 30.31 55.5555 31.17C55.5555 31.81 55.3705 32.35 55.0005 32.79C54.6305 33.23 54.1255 33.525 53.4855 33.675V33.45C53.9755 33.52 54.3955 33.67 54.7455 33.9C55.0955 34.13 55.3605 34.425 55.5405 34.785C55.7305 35.145 55.8255 35.565 55.8255 36.045C55.8255 36.665 55.6805 37.2 55.3905 37.65C55.1105 38.09 54.7005 38.425 54.1605 38.655C53.6205 38.885 52.9755 39 52.2255 39H47.4405ZM49.2855 37.545H51.9855C52.2555 37.545 52.4955 37.525 52.7055 37.485C52.9255 37.445 53.1105 37.385 53.2605 37.305C53.4205 37.215 53.5505 37.105 53.6505 36.975C53.7605 36.845 53.8405 36.695 53.8905 36.525C53.9405 36.355 53.9655 36.165 53.9655 35.955C53.9655 35.735 53.9405 35.54 53.8905 35.37C53.8405 35.2 53.7605 35.055 53.6505 34.935C53.5505 34.805 53.4205 34.7 53.2605 34.62C53.1105 34.53 52.9255 34.465 52.7055 34.425C52.4955 34.385 52.2555 34.365 51.9855 34.365H49.2855V37.545ZM49.2855 32.91H51.7305C52.3905 32.91 52.8805 32.785 53.2005 32.535C53.5305 32.275 53.6955 31.895 53.6955 31.395C53.6955 30.895 53.5305 30.52 53.2005 30.27C52.8805 30.01 52.3905 29.88 51.7305 29.88H49.2855V32.91ZM56.5544 39L61.3394 28.425H62.9144L67.6994 39H65.7494L64.4744 36.03L65.2844 36.555H58.9544L59.7644 36.03L58.5044 39H56.5544ZM62.1044 30.51L60.0044 35.505L59.6144 35.025H64.6244L64.2494 35.505L62.1344 30.51H62.1044ZM72.3843 39.15C71.8343 39.15 71.3043 39.1 70.7943 39C70.2943 38.91 69.8293 38.775 69.3993 38.595C68.9793 38.415 68.6043 38.2 68.2743 37.95L68.8593 36.435C69.1893 36.665 69.5343 36.865 69.8943 37.035C70.2643 37.195 70.6543 37.32 71.0643 37.41C71.4843 37.49 71.9243 37.53 72.3843 37.53C73.1743 37.53 73.7493 37.4 74.1093 37.14C74.4693 36.87 74.6493 36.525 74.6493 36.105C74.6493 35.875 74.5943 35.68 74.4843 35.52C74.3743 35.35 74.1943 35.205 73.9443 35.085C73.6943 34.965 73.3643 34.865 72.9543 34.785L71.3043 34.44C70.3543 34.24 69.6443 33.905 69.1743 33.435C68.7143 32.955 68.4843 32.325 68.4843 31.545C68.4843 30.885 68.6593 30.31 69.0093 29.82C69.3593 29.33 69.8443 28.95 70.4643 28.68C71.0843 28.41 71.7993 28.275 72.6093 28.275C73.0893 28.275 73.5493 28.325 73.9893 28.425C74.4393 28.515 74.8493 28.655 75.2193 28.845C75.5993 29.025 75.9293 29.245 76.2093 29.505L75.6243 30.945C75.2043 30.595 74.7443 30.335 74.2443 30.165C73.7443 29.985 73.1943 29.895 72.5943 29.895C72.1343 29.895 71.7393 29.96 71.4093 30.09C71.0793 30.22 70.8243 30.405 70.6443 30.645C70.4743 30.875 70.3893 31.15 70.3893 31.47C70.3893 31.83 70.5093 32.12 70.7493 32.34C70.9893 32.55 71.3993 32.715 71.9793 32.835L73.6143 33.18C74.6043 33.39 75.3393 33.72 75.8193 34.17C76.3093 34.62 76.5543 35.22 76.5543 35.97C76.5543 36.6 76.3843 37.155 76.0443 37.635C75.7043 38.115 75.2193 38.49 74.5893 38.76C73.9693 39.02 73.2343 39.15 72.3843 39.15ZM78.2022 39V28.425H85.2372V29.955H80.0472V32.865H84.9072V34.395H80.0472V37.47H85.2372V39H78.2022Z" fill="white"/>
<path d="M50.9853 0L53.8137 2.82843L39.6642 17.0091L34.0147 17L50.9853 0Z" fill="white"/>
<path d="M62.5074 17.0386L67.9485 17.0091L50.9779 0.038573L48.1495 2.867L62.5074 17.0386Z" fill="white"/>
<path d="M57.3419 6.40253L60.1703 9.23096L52.5074 17.0386L46.8197 17.0936L57.3419 6.40253Z" fill="white"/>
<path d="M50.9862 66.9714L48.1577 64.143L62.3073 49.9623L67.9567 49.9714L50.9862 66.9714Z" fill="white"/>
<path d="M39.4641 49.9329L34.023 49.9623L50.9935 66.9329L53.822 64.1044L39.4641 49.9329Z" fill="white"/>
<path d="M44.6296 60.5689L41.8012 57.7405L49.4641 49.9329L55.1518 49.8779L44.6296 60.5689Z" fill="white"/>
<path d="M70 10.91C86.5685 10.91 100 20.9836 100 33.41C100 45.8364 87.1568 55.91 70.5882 55.91" stroke="white" stroke-width="3"/>
<path d="M32 55.91C15.4315 55.91 2 45.8364 2 33.41C2 20.9836 14.8432 10.91 31.4118 10.91" stroke="white" stroke-width="3"/>
<rect x="68" y="56.0711" width="3" height="10" transform="rotate(-45 68 56.0711)" fill="white"/>
<rect x="70.1213" y="58.1924" width="3" height="10" transform="rotate(-135 70.1213 58.1924)" fill="white"/>
<rect x="34.1422" y="11.0711" width="3" height="10" transform="rotate(135 34.1422 11.0711)" fill="white"/>
<rect x="32.0208" y="8.94975" width="3" height="10" transform="rotate(45 32.0208 8.94975)" fill="white"/>
</svg>
